<svg width="64" height="64" viewBox="0 0 64 64" fill="none" xmlns="http://www.w3.org/2000/svg">
<circle cx="32" cy="32" r="32" fill="#121212"/>
<path d="M31.2185 21.592C32.0345 22.024 32.5505 22.66 32.7665 23.5C32.2865 26.188 31.8545 28.864 31.4705 31.528C31.0865 34.168 30.7145 36.388 30.3545 38.188C29.9945 39.964 29.7425 41.296 29.5985 42.184C29.4785 43.072 29.3345 43.96 29.1665 44.848L28.9505 45.604C28.9025 45.868 28.8545 46.108 28.8065 46.324C28.7585 46.564 28.7105 46.816 28.6625 47.08C27.9905 47.848 27.0785 48.232 25.9265 48.232C24.7025 48.232 23.7305 47.92 23.0105 47.296C22.5785 46.96 22.5065 46.252 22.7945 45.172C22.9145 44.74 22.9865 44.188 23.0105 43.516C23.0585 42.82 23.1065 42.244 23.1545 41.788V41.716C22.4345 41.98 21.7865 42.328 21.2105 42.76C20.6345 43.168 20.2745 43.432 20.1305 43.552C19.9865 43.648 19.7945 43.732 19.5545 43.804C19.3145 43.852 19.0985 43.888 18.9065 43.912C18.4505 43.936 18.1385 44.008 17.9705 44.128C16.5785 46.624 15.3305 48.016 14.2265 48.304C13.5305 48.52 12.8345 48.568 12.1385 48.448C11.4425 48.352 10.8905 47.944 10.4825 47.224C9.71455 46.504 9.90655 44.536 11.0585 41.32C11.6825 39.616 12.5705 37.576 13.7225 35.2C14.8985 32.8 16.0265 30.712 17.1065 28.936C19.4345 25.12 21.9905 21.904 24.7745 19.288C25.2305 19.096 25.7225 18.88 26.2505 18.64C26.7785 18.376 27.2945 18.232 27.7985 18.208C28.3265 18.184 28.8665 18.244 29.4185 18.388C29.9705 18.532 30.4385 18.748 30.8225 19.036C31.7105 19.708 31.8425 20.56 31.2185 21.592ZM23.5145 31.06C23.0105 32.5 22.5065 33.832 22.0025 35.056C21.4985 36.256 21.0665 37.312 20.7065 38.224L23.5505 38.116C23.7425 36.58 23.9585 35.056 24.1985 33.544C24.4385 32.032 24.6665 30.52 24.8825 29.008L23.5145 31.06ZM22.5425 38.26C22.8785 38.26 23.2145 38.236 23.5505 38.188V38.152C23.2385 38.176 22.9505 38.2 22.6865 38.224C22.4225 38.248 22.3745 38.26 22.5425 38.26ZM50.6389 18.856L50.7829 18.892C51.3829 19.252 51.8989 19.66 52.3309 20.116C52.7869 20.548 53.1949 21.016 53.5549 21.52C53.9389 22 54.2389 22.528 54.4549 23.104C55.3669 25.312 54.5749 27.784 52.0789 30.52C51.0229 31.672 49.8349 32.656 48.5149 33.472C48.8509 33.712 49.1629 33.892 49.4509 34.012C49.7629 34.108 50.1949 34.312 50.7469 34.624C51.2989 34.912 51.6589 35.476 51.8269 36.316C51.9949 37.132 51.9469 38.056 51.6829 39.088C51.4429 40.12 50.9869 41.188 50.3149 42.292C49.6669 43.372 48.8149 44.344 47.7589 45.208C45.3589 47.2 42.5749 48.04 39.4069 47.728C38.9509 47.728 38.6629 47.692 38.5429 47.62C38.4229 47.548 38.3269 47.488 38.2549 47.44C38.1829 47.392 38.0269 47.356 37.7869 47.332C37.1869 47.812 36.5029 48.112 35.7349 48.232C34.9669 48.352 34.2349 48.292 33.5389 48.052C32.8669 47.812 32.2909 47.404 31.8109 46.828C31.3549 46.252 31.1269 45.496 31.1269 44.56C31.1989 43.936 31.3189 43.444 31.4869 43.084C31.4149 42.868 31.3789 42.604 31.3789 42.292C32.1949 37.948 32.9629 34.624 33.6829 32.32C35.1469 27.736 36.7309 24.28 38.4349 21.952C39.8269 19.984 41.7589 18.712 44.2309 18.136C46.6069 17.584 48.7429 17.824 50.6389 18.856ZM39.4429 43.984C39.7309 43.912 39.9709 43.9 40.1629 43.948C40.3789 43.972 40.6309 43.96 40.9189 43.912C41.6149 43.84 42.5509 43.408 43.7269 42.616C44.4709 41.872 44.8669 41.14 44.9149 40.42C44.9629 39.7 44.8549 39.244 44.5909 39.052C44.3269 38.836 43.9669 38.728 43.5109 38.728C43.0789 38.728 42.5869 38.8 42.0349 38.944C41.5069 39.064 40.9909 39.136 40.4869 39.16V39.232C40.3669 39.712 40.2469 40.132 40.1269 40.492C40.0069 40.852 39.8989 41.2 39.8029 41.536C39.5869 42.328 39.4189 43.144 39.2989 43.984H39.4429ZM46.1389 25.264C45.4189 25.168 44.6389 25.732 43.7989 26.956C43.2709 27.724 42.8629 28.888 42.5749 30.448C43.0789 30.232 43.5709 30.052 44.0509 29.908C44.5549 29.74 45.0229 29.56 45.4549 29.368C46.5109 28.912 47.2669 28.36 47.7229 27.712C48.2509 27.088 48.4189 26.56 48.2269 26.128C47.9389 25.744 47.4709 25.396 46.8229 25.084C46.6309 25.252 46.4029 25.312 46.1389 25.264ZM45.5989 25.12H45.7069H45.5989Z" fill="white"/>
</svg>
