<svg xmlns="http://www.w3.org/2000/svg" width="136" height="136" viewBox="0 0 136 136" fill="none">
<g filter="url(#filter0_d_135_21)">
<rect x="4" width="128" height="128" rx="12" fill="#2E2E2E"/>
<path d="M30.88 25.206V39H23.964V25.206H21.532V19.506H23.964V17.036C23.964 15.9973 24.0147 15.0347 24.116 14.148C24.2173 13.2613 24.5087 12.4 24.99 11.564C25.1167 11.336 25.256 11.1207 25.408 10.918C25.56 10.69 25.7373 10.462 25.94 10.234C26.8013 9.22067 27.8147 8.448 28.98 7.916C30.1707 7.384 31.4247 7.118 32.742 7.118C33.274 7.118 33.7807 7.16867 34.262 7.27C34.7433 7.37133 35.2247 7.54867 35.706 7.802V13.73C35.6047 13.7047 35.4907 13.6667 35.364 13.616C35.2627 13.5653 35.1487 13.5273 35.022 13.502C34.7433 13.3753 34.4647 13.2867 34.186 13.236C33.9073 13.16 33.6033 13.122 33.274 13.122C32.3873 13.122 31.7667 13.388 31.412 13.92C31.0573 14.452 30.88 15.2753 30.88 16.39V19.506H35.706V25.206H30.88ZM47.9304 18.86C51.0718 18.8853 53.8078 19.81 56.1384 21.634C58.4944 23.4327 59.6724 25.9913 59.6724 29.31C59.6724 32.6033 58.4944 35.1493 56.1384 36.948C53.8078 38.7467 51.0718 39.646 47.9304 39.646C44.8144 39.646 42.0784 38.7593 39.7224 36.986C37.3664 35.1873 36.1884 32.6287 36.1884 29.31C36.1884 25.9913 37.3538 23.4327 39.6844 21.634C42.0404 19.81 44.7891 18.898 47.9304 18.898V18.86ZM47.9304 24.864C46.5371 24.8893 45.4478 25.3453 44.6624 26.232C43.8771 27.0933 43.4844 28.1193 43.4844 29.31C43.4844 30.5513 43.8771 31.59 44.6624 32.426C45.4478 33.262 46.5371 33.68 47.9304 33.68C49.3491 33.68 50.4384 33.262 51.1984 32.426C51.9838 31.59 52.3764 30.5513 52.3764 29.31C52.3764 28.1193 51.9838 27.0933 51.1984 26.232C50.4384 25.3453 49.3491 24.902 47.9304 24.902V24.864ZM69.3286 19.506V22.698H69.4046C70.0632 21.5327 70.9372 20.6713 72.0266 20.114C73.1412 19.5567 74.3699 19.278 75.7126 19.278L77.0426 19.24V25.89C76.9412 25.8647 76.8399 25.8267 76.7386 25.776C76.6626 25.7253 76.5739 25.6873 76.4726 25.662C76.0926 25.51 75.7126 25.4087 75.3326 25.358C74.9526 25.3073 74.5472 25.282 74.1166 25.282C72.1912 25.282 70.9119 25.852 70.2786 26.992C69.6452 28.1067 69.3286 29.5 69.3286 31.172V39H62.4126V19.506H69.3286ZM90.9847 30.374V26.422C91.0101 26.4473 91.0354 26.46 91.0607 26.46C91.0861 26.46 91.1114 26.46 91.1367 26.46C91.2887 26.46 91.4534 26.46 91.6307 26.46C91.8081 26.46 91.9854 26.4347 92.1627 26.384C92.5427 26.308 92.8847 26.1433 93.1887 25.89C93.4927 25.6113 93.6447 25.13 93.6447 24.446V14.794C93.6447 13.502 93.8981 12.438 94.4047 11.602C94.9367 10.7407 95.5194 10.0947 96.1527 9.664C96.4821 9.436 96.7987 9.27133 97.1027 9.17C97.4321 9.06867 97.7107 9.018 97.9387 9.018L101.625 8.98V13.54H100.675C99.8894 13.5653 99.3954 13.7807 99.1927 14.186C99.0154 14.5913 98.9267 15.0473 98.9267 15.554C98.9267 15.5793 98.9267 15.6173 98.9267 15.668C98.9267 15.7187 98.9267 15.7693 98.9267 15.82V24.332C98.9267 25.4213 98.6987 26.2447 98.2427 26.802C97.8121 27.334 97.3307 27.7267 96.7987 27.98C96.5201 28.1067 96.2414 28.208 95.9627 28.284C95.7094 28.3347 95.4814 28.3727 95.2787 28.398V28.436C95.4814 28.4867 95.7094 28.5373 95.9627 28.588C96.2414 28.6387 96.5201 28.7147 96.7987 28.816C97.3307 29.044 97.8121 29.462 98.2427 30.07C98.6987 30.6527 98.9267 31.6027 98.9267 32.92V41.318C98.9267 41.3433 98.9267 41.356 98.9267 41.356C98.9267 41.3813 98.9267 41.4067 98.9267 41.432C98.9267 41.964 99.0027 42.4453 99.1547 42.876C99.3321 43.332 99.8387 43.56 100.675 43.56H101.625V48.12H97.9387C97.7107 48.12 97.4321 48.0693 97.1027 47.968C96.7987 47.8667 96.4821 47.702 96.1527 47.474C95.5194 47.0433 94.9367 46.41 94.4047 45.574C93.8981 44.738 93.6447 43.674 93.6447 42.382V32.768C93.6447 31.9573 93.4927 31.4 93.1887 31.096C92.8847 30.7667 92.5427 30.564 92.1627 30.488C92.0361 30.4627 91.9094 30.45 91.7827 30.45C91.6561 30.4247 91.5421 30.412 91.4407 30.412C91.3394 30.412 91.2507 30.412 91.1747 30.412C91.0987 30.412 91.0354 30.412 90.9847 30.412V30.374ZM52.8268 68.868C54.0681 68.8933 55.1194 69.3367 55.9808 70.198C56.8421 71.0593 57.2728 72.1107 57.2728 73.352C57.2728 74.568 56.8421 75.6067 55.9808 76.468C55.1194 77.3293 54.0681 77.76 52.8268 77.76C51.5854 77.76 50.5341 77.3293 49.6728 76.468C48.8114 75.6067 48.3808 74.568 48.3808 73.352C48.3808 72.1107 48.8114 71.0593 49.6728 70.198C50.5341 69.3367 51.5854 68.906 52.8268 68.906V68.868ZM65.4722 68.868C66.7135 68.8933 67.7648 69.3367 68.6262 70.198C69.4875 71.0593 69.9182 72.1107 69.9182 73.352C69.9182 74.568 69.4875 75.6067 68.6262 76.468C67.7648 77.3293 66.7135 77.76 65.4722 77.76C64.2308 77.76 63.1795 77.3293 62.3182 76.468C61.4568 75.6067 61.0262 74.568 61.0262 73.352C61.0262 72.1107 61.4568 71.0593 62.3182 70.198C63.1795 69.3367 64.2308 68.906 65.4722 68.906V68.868ZM78.1176 68.868C79.3589 68.8933 80.4102 69.3367 81.2716 70.198C82.1329 71.0593 82.5636 72.1107 82.5636 73.352C82.5636 74.568 82.1329 75.6067 81.2716 76.468C80.4102 77.3293 79.3589 77.76 78.1176 77.76C76.8762 77.76 75.8249 77.3293 74.9636 76.468C74.1022 75.6067 73.6716 74.568 73.6716 73.352C73.6716 72.1107 74.1022 71.0593 74.9636 70.198C75.8249 69.3367 76.8762 68.906 78.1176 68.906V68.868ZM33.008 102.422V106.374C32.9573 106.399 32.8813 106.412 32.78 106.412C32.704 106.412 32.6153 106.412 32.514 106.412C32.4127 106.412 32.2987 106.425 32.172 106.45C32.0707 106.45 31.9567 106.463 31.83 106.488C31.45 106.564 31.108 106.767 30.804 107.096C30.5 107.4 30.348 107.97 30.348 108.806V118.382C30.348 119.674 30.082 120.738 29.55 121.574C29.0433 122.41 28.4733 123.043 27.84 123.474C27.5107 123.702 27.1813 123.867 26.852 123.968C26.548 124.069 26.282 124.12 26.054 124.12H22.368V119.56H23.318C24.154 119.56 24.648 119.332 24.8 118.876C24.9773 118.445 25.066 117.964 25.066 117.432C25.066 117.407 25.066 117.381 25.066 117.356C25.066 117.356 25.066 117.343 25.066 117.318V108.882C25.066 107.59 25.2813 106.653 25.712 106.07C26.168 105.462 26.662 105.044 27.194 104.816C27.4727 104.715 27.7387 104.639 27.992 104.588C28.2707 104.537 28.5113 104.499 28.714 104.474V104.36C28.5113 104.36 28.2707 104.335 27.992 104.284C27.7387 104.208 27.4727 104.107 27.194 103.98C26.662 103.727 26.168 103.334 25.712 102.802C25.2813 102.245 25.066 101.434 25.066 100.37V91.782C25.066 91.7567 25.066 91.7187 25.066 91.668C25.066 91.6173 25.066 91.5793 25.066 91.554C25.066 91.0473 24.9647 90.5913 24.762 90.186C24.5847 89.7807 24.1033 89.578 23.318 89.578L22.368 89.54V84.98H26.054C26.282 85.0053 26.548 85.0687 26.852 85.17C27.1813 85.2713 27.5107 85.436 27.84 85.664C28.4733 86.0947 29.0433 86.7407 29.55 87.602C30.082 88.438 30.348 89.5147 30.348 90.832V100.408C30.348 101.117 30.5 101.611 30.804 101.89C31.108 102.143 31.45 102.308 31.83 102.384C32.0073 102.435 32.1847 102.46 32.362 102.46C32.5393 102.46 32.704 102.46 32.856 102.46C32.8813 102.46 32.9067 102.46 32.932 102.46C32.9573 102.46 32.9827 102.46 33.008 102.46V102.422Z" fill="#F0DB4F"/>
</g>
<defs>
<filter id="filter0_d_135_21" x="0" y="0" width="136" height="136" filterUnits="userSpaceOnUse" color-interpolation-filters="sRGB">
<feFlood flood-opacity="0" result="BackgroundImageFix"/>
<feColorMatrix in="SourceAlpha" type="matrix" values="0 0 0 0 0 0 0 0 0 0 0 0 0 0 0 0 0 0 127 0" result="hardAlpha"/>
<feOffset dy="4"/>
<feGaussianBlur stdDeviation="2"/>
<feComposite in2="hardAlpha" operator="out"/>
<feColorMatrix type="matrix" values="0 0 0 0 0 0 0 0 0 0 0 0 0 0 0 0 0 0 0.25 0"/>
<feBlend mode="normal" in2="BackgroundImageFix" result="effect1_dropShadow_135_21"/>
<feBlend mode="normal" in="SourceGraphic" in2="effect1_dropShadow_135_21" result="shape"/>
</filter>
</defs>
</svg>