<svg width="1618" height="1000" viewBox="0 0 1618 1000" fill="none" xmlns="http://www.w3.org/2000/svg">
<mask id="mask0_84_16" style="mask-type:alpha" maskUnits="userSpaceOnUse" x="0" y="0" width="1618" height="1000">
<rect width="1618" height="1000" rx="36" fill="#232323"/>
</mask>
<g mask="url(#mask0_84_16)">
<g filter="url(#filter0_d_84_16)">
<rect width="1618" height="1000" rx="36" fill="#1F1F1F"/>
<rect width="1618" height="1000" rx="36" fill="url(#paint0_radial_84_16)" fill-opacity="0.77"/>
<rect x="8" y="8" width="1618" height="1000" rx="36" fill="#1F1F1F" opacity="9%" filter="url(#turb) contrast(100%)" />
</g>
<g filter="url(#filter1_f_84_16)">
<ellipse cx="588.981" cy="809.671" rx="80.4466" ry="606" transform="rotate(-50.893 588.981 809.671)" fill="url(#paint1_radial_84_16)" fill-opacity="0.5"/>
</g>
<g filter="url(#filter2_f_84_16)">
<ellipse cx="64.2997" cy="484.366" rx="64.2997" ry="484.366" transform="matrix(-0.575562 -0.817758 -0.817758 0.575562 1467.21 661.163)" fill="url(#paint2_radial_84_16)" fill-opacity="0.5"/>
</g>
<g filter="url(#filter3_f_84_16)">
<ellipse cx="51.6019" cy="325.824" rx="51.6019" ry="325.824" transform="matrix(-0.91822 -0.39607 -0.39607 0.91822 1243.86 85.876)" fill="url(#paint3_radial_84_16)" fill-opacity="0.5"/>
</g>
<g filter="url(#filter4_f_84_16)">
<ellipse cx="686.285" cy="500.016" rx="33.2657" ry="210.046" transform="rotate(-13.4722 686.285 500.016)" fill="url(#paint4_radial_84_16)" fill-opacity="0.5"/>
</g>
<g filter="url(#filter5_f_84_16)">
<ellipse cx="51.6019" cy="325.824" rx="51.6019" ry="325.824" transform="matrix(-0.796982 -0.604003 -0.604003 0.796982 1261.85 453.335)" fill="url(#paint5_radial_84_16)" fill-opacity="0.5"/>
</g>
<g filter="url(#filter6_f_84_16)">
<ellipse cx="710.431" cy="706.616" rx="51.6019" ry="325.824" transform="rotate(-23.3327 710.431 706.616)" fill="url(#paint6_radial_84_16)" fill-opacity="0.5"/>
</g>
<g filter="url(#filter7_f_84_16)">
<ellipse cx="1052.39" cy="761.39" rx="61.4812" ry="388.204" transform="rotate(41.5262 1052.39 761.39)" fill="url(#paint7_radial_84_16)" fill-opacity="0.5"/>
</g>
<g filter="url(#filter8_f_84_16)">
<ellipse cx="61.4812" cy="388.204" rx="61.4812" ry="388.204" transform="matrix(-0.182589 0.983189 0.983189 0.182589 144.451 798)" fill="url(#paint8_radial_84_16)" fill-opacity="0.5"/>
</g>
<g filter="url(#filter9_f_84_16)">
<ellipse cx="61.4812" cy="535.536" rx="61.4812" ry="535.536" transform="matrix(-0.748653 0.662962 0.662962 0.748653 246.056 237)" fill="url(#paint9_radial_84_16)" fill-opacity="0.5"/>
</g>
<g filter="url(#filter10_f_84_16)">
<ellipse cx="1124.78" cy="950.771" rx="42.5352" ry="370.506" transform="rotate(64.5232 1124.78 950.771)" fill="url(#paint10_radial_84_16)" fill-opacity="0.5"/>
</g>
<g filter="url(#filter11_f_84_16)">
<ellipse cx="845.634" cy="714.206" rx="56.3232" ry="490.608" transform="rotate(1.94584 845.634 714.206)" fill="url(#paint11_radial_84_16)" fill-opacity="0.5"/>
</g>
<path d="M377.988 412.451C377.843 415.92 377.048 420.906 375.603 427.41C375.362 428.47 375.169 429.313 375.025 429.939L367.075 466H333.906L302.976 360.203H341.132L349.443 406.814C350.165 410.91 350.719 414.667 351.105 418.088C351.49 421.46 351.731 424.64 351.827 427.627H352.695C352.791 423.436 353.538 417.919 354.935 411.078C355.031 410.452 355.128 409.946 355.224 409.561L365.269 360.203H392.079L402.124 409.633C402.172 409.922 402.269 410.404 402.413 411.078C403.81 417.967 404.557 423.484 404.654 427.627H405.521C405.617 424.64 405.858 421.46 406.243 418.088C406.629 414.667 407.183 410.91 407.906 406.814L416.216 360.203H454.372L423.443 466H390.273L382.324 429.939C382.179 429.313 381.986 428.446 381.745 427.338C380.3 420.882 379.505 415.92 379.361 412.451H377.988ZM549.462 434.564L497.937 434.637V435.793C497.937 439.599 498.611 442.441 499.96 444.32C501.358 446.151 503.453 447.066 506.247 447.066C507.934 447.066 509.403 446.585 510.656 445.621C511.908 444.609 512.896 443.164 513.619 441.285L547.222 443.525C544.283 451.619 539.225 457.858 532.046 462.242C524.868 466.626 516.076 468.818 505.669 468.818C499.888 468.818 494.468 467.927 489.41 466.145C484.399 464.41 479.895 461.857 475.896 458.484C471.415 454.582 467.971 450.077 465.562 444.971C463.153 439.864 461.949 434.492 461.949 428.855C461.949 423.171 463.153 417.775 465.562 412.668C468.019 407.513 471.464 403.033 475.896 399.227C479.895 395.806 484.399 393.229 489.41 391.494C494.42 389.76 499.84 388.893 505.669 388.893C513.667 388.893 520.845 390.507 527.205 393.734C533.564 396.914 538.863 401.563 543.103 407.682C545.271 410.813 546.885 414.282 547.945 418.088C549.053 421.846 549.607 425.965 549.607 430.445C549.607 431.602 549.583 432.469 549.535 433.047C549.535 433.625 549.511 434.131 549.462 434.564ZM498.226 418.305L514.63 418.377C514.486 415.438 513.739 413.27 512.39 411.873C511.089 410.476 509.138 409.777 506.537 409.777C504.224 409.777 502.345 410.524 500.9 412.018C499.503 413.463 498.611 415.559 498.226 418.305ZM573.515 466V353.988H609.793V466H573.515ZM694.621 423.219C692.694 421.533 690.719 420.28 688.695 419.461C686.672 418.594 684.552 418.16 682.336 418.16C678.674 418.16 675.76 419.148 673.592 421.123C671.424 423.05 670.34 425.628 670.34 428.855C670.34 431.939 671.399 434.468 673.519 436.443C675.639 438.37 678.385 439.334 681.758 439.334C683.877 439.334 685.997 438.876 688.117 437.961C690.285 436.997 692.453 435.6 694.621 433.77V463.471C690.863 465.301 687.226 466.65 683.709 467.518C680.24 468.385 676.819 468.818 673.447 468.818C667.907 468.818 662.776 467.879 658.054 466C653.333 464.169 649.142 461.447 645.48 457.834C641.626 453.98 638.687 449.62 636.664 444.754C634.64 439.84 633.629 434.637 633.629 429.145C633.629 425.339 634.11 421.653 635.074 418.088C636.086 414.475 637.579 411.054 639.554 407.826C643.312 401.708 648.082 397.035 653.863 393.807C659.692 390.531 666.22 388.893 673.447 388.893C676.627 388.893 679.951 389.23 683.42 389.904C686.937 390.579 690.67 391.615 694.621 393.012V423.219ZM758.853 439.045C761.455 439.045 763.575 438.105 765.213 436.227C766.851 434.348 767.67 431.891 767.67 428.855C767.67 425.772 766.851 423.315 765.213 421.484C763.623 419.605 761.503 418.666 758.853 418.666C756.155 418.666 753.988 419.605 752.349 421.484C750.76 423.315 749.965 425.772 749.965 428.855C749.965 431.939 750.76 434.42 752.349 436.299C753.988 438.13 756.155 439.045 758.853 439.045ZM802.502 428.855C802.502 434.492 801.297 439.864 798.889 444.971C796.48 450.077 793.035 454.582 788.555 458.484C784.652 461.857 780.172 464.41 775.113 466.145C770.103 467.927 764.683 468.818 758.853 468.818C753.024 468.818 747.604 467.951 742.594 466.217C737.583 464.482 733.079 461.905 729.08 458.484C724.648 454.727 721.203 450.27 718.746 445.115C716.337 439.912 715.133 434.492 715.133 428.855C715.133 423.171 716.337 417.775 718.746 412.668C721.203 407.513 724.648 403.033 729.08 399.227C733.079 395.806 737.583 393.229 742.594 391.494C747.604 389.76 753.024 388.893 758.853 388.893C764.683 388.893 770.103 389.784 775.113 391.566C780.172 393.301 784.7 395.854 788.699 399.227C793.083 402.984 796.48 407.441 798.889 412.596C801.297 417.751 802.502 423.171 802.502 428.855ZM826.699 466V391.277H861.315V401.756C864.157 397.324 867.289 394.072 870.709 392C874.13 389.928 878.056 388.893 882.488 388.893C887.74 388.893 892.1 390.169 895.568 392.723C899.085 395.276 901.928 399.275 904.096 404.719C906.938 399.516 910.407 395.589 914.502 392.939C918.645 390.242 923.27 388.893 928.377 388.893C935.7 388.893 941.529 391.326 945.865 396.191C950.249 401.009 952.442 407.513 952.442 415.703V466H917.393V428.422C917.393 424.616 917.031 422.038 916.309 420.689C915.634 419.34 914.454 418.666 912.768 418.666C910.841 418.666 909.395 419.461 908.432 421.051C907.516 422.641 907.059 425.098 907.059 428.422V466H872.516V428.422C872.516 424.712 872.154 422.159 871.432 420.762C870.757 419.365 869.553 418.666 867.818 418.666C865.843 418.666 864.374 419.461 863.41 421.051C862.495 422.641 862.037 425.098 862.037 428.422V466H826.699ZM1063.65 434.564L1012.12 434.637V435.793C1012.12 439.599 1012.8 442.441 1014.14 444.32C1015.54 446.151 1017.64 447.066 1020.43 447.066C1022.12 447.066 1023.59 446.585 1024.84 445.621C1026.09 444.609 1027.08 443.164 1027.8 441.285L1061.41 443.525C1058.47 451.619 1053.41 457.858 1046.23 462.242C1039.05 466.626 1030.26 468.818 1019.85 468.818C1014.07 468.818 1008.65 467.927 1003.59 466.145C998.584 464.41 994.079 461.857 990.08 458.484C985.6 454.582 982.155 450.077 979.746 444.971C977.337 439.864 976.133 434.492 976.133 428.855C976.133 423.171 977.337 417.775 979.746 412.668C982.203 407.513 985.648 403.033 990.08 399.227C994.079 395.806 998.584 393.229 1003.59 391.494C1008.6 389.76 1014.02 388.893 1019.85 388.893C1027.85 388.893 1035.03 390.507 1041.39 393.734C1047.75 396.914 1053.05 401.563 1057.29 407.682C1059.46 410.813 1061.07 414.282 1062.13 418.088C1063.24 421.846 1063.79 425.965 1063.79 430.445C1063.79 431.602 1063.77 432.469 1063.72 433.047C1063.72 433.625 1063.69 434.131 1063.65 434.564ZM1012.41 418.305L1028.81 418.377C1028.67 415.438 1027.92 413.27 1026.57 411.873C1025.27 410.476 1023.32 409.777 1020.72 409.777C1018.41 409.777 1016.53 410.524 1015.08 412.018C1013.69 413.463 1012.8 415.559 1012.41 418.305ZM1154.39 466V418.811H1144.2V391.277H1154.39V366.562H1190.67V391.277H1201V418.811H1190.67V466H1154.39ZM1263.5 439.045C1266.1 439.045 1268.22 438.105 1269.86 436.227C1271.5 434.348 1272.32 431.891 1272.32 428.855C1272.32 425.772 1271.5 423.315 1269.86 421.484C1268.27 419.605 1266.15 418.666 1263.5 418.666C1260.8 418.666 1258.63 419.605 1256.99 421.484C1255.41 423.315 1254.61 425.772 1254.61 428.855C1254.61 431.939 1255.41 434.42 1256.99 436.299C1258.63 438.13 1260.8 439.045 1263.5 439.045ZM1307.15 428.855C1307.15 434.492 1305.94 439.864 1303.53 444.971C1301.13 450.077 1297.68 454.582 1293.2 458.484C1289.3 461.857 1284.82 464.41 1279.76 466.145C1274.75 467.927 1269.33 468.818 1263.5 468.818C1257.67 468.818 1252.25 467.951 1247.24 466.217C1242.23 464.482 1237.72 461.905 1233.73 458.484C1229.29 454.727 1225.85 450.27 1223.39 445.115C1220.98 439.912 1219.78 434.492 1219.78 428.855C1219.78 423.171 1220.98 417.775 1223.39 412.668C1225.85 407.513 1229.29 403.033 1233.73 399.227C1237.72 395.806 1242.23 393.229 1247.24 391.494C1252.25 389.76 1257.67 388.893 1263.5 388.893C1269.33 388.893 1274.75 389.784 1279.76 391.566C1284.82 393.301 1289.35 395.854 1293.34 399.227C1297.73 402.984 1301.13 407.441 1303.53 412.596C1305.94 417.751 1307.15 423.171 1307.15 428.855ZM231.277 610.553C231.277 603.085 229.229 597.087 225.134 592.559C221.087 587.982 215.788 585.693 209.236 585.693C202.443 585.693 197.143 587.789 193.337 591.98C189.531 596.172 187.628 602.025 187.628 609.541C187.628 617.538 189.531 623.705 193.337 628.041C197.192 632.377 202.636 634.545 209.669 634.545C216.414 634.545 221.69 632.449 225.496 628.258C229.35 624.018 231.277 618.117 231.277 610.553ZM242.261 576.877V643H231.277V631.004C228.627 635.822 225.231 639.507 221.087 642.061C216.992 644.566 212.391 645.818 207.285 645.818C197.794 645.818 190.134 642.566 184.304 636.062C178.523 629.51 175.632 620.863 175.632 610.119C175.632 599.231 178.451 590.583 184.087 584.176C189.724 577.72 197.264 574.492 206.706 574.492C212.247 574.492 217.04 575.745 221.087 578.25C225.182 580.707 228.483 584.393 230.988 589.307V576.877H242.261ZM274.096 576.877V609.396C274.096 618.887 275.493 625.536 278.287 629.342C281.129 633.1 285.899 634.979 292.596 634.979C299.292 634.979 304.014 633.124 306.76 629.414C309.554 625.656 310.951 618.984 310.951 609.396V576.877H322.514V615.467C322.514 625.439 319.96 633.003 314.853 638.158C309.747 643.265 302.231 645.818 292.307 645.818C282.478 645.818 275.011 643.241 269.904 638.086C264.797 632.931 262.244 625.391 262.244 615.467V576.877H274.096ZM335.92 631.871L345.604 625.367C347.435 628.884 349.747 631.534 352.541 633.316C355.336 635.051 358.636 635.918 362.442 635.918C366.151 635.918 369.138 635.003 371.403 633.172C373.715 631.341 374.871 628.932 374.871 625.945C374.871 623.633 374.077 621.706 372.487 620.164C370.945 618.622 368.271 617.201 364.465 615.9C364.08 615.756 363.454 615.539 362.586 615.25C346.495 609.71 338.45 602.772 338.45 594.438C338.45 588.56 340.618 583.766 344.954 580.057C349.289 576.347 354.926 574.492 361.864 574.492C367.597 574.492 372.511 575.648 376.606 577.961C380.701 580.225 383.64 583.453 385.422 587.645L376.245 593.281C374.896 590.246 372.896 587.91 370.246 586.271C367.645 584.633 364.61 583.814 361.141 583.814C357.817 583.814 355.095 584.754 352.975 586.633C350.903 588.464 349.868 590.824 349.868 593.715C349.868 597.762 354.252 601.158 363.02 603.904C364.658 604.434 365.959 604.844 366.922 605.133C374.101 607.445 379.087 610.095 381.881 613.082C384.724 616.021 386.145 619.923 386.145 624.789C386.145 631.052 383.905 636.135 379.424 640.037C374.992 643.891 369.187 645.818 362.008 645.818C355.842 645.818 350.59 644.662 346.254 642.35C341.967 640.037 338.522 636.544 335.92 631.871ZM403.454 586.199H391.313V576.877H403.454V550.211H415.016V576.877H427.157V586.199H415.016V643H403.454V586.199ZM436.445 545.008C436.445 542.743 437.24 540.816 438.829 539.227C440.467 537.589 442.443 536.77 444.755 536.77C447.02 536.77 448.947 537.589 450.536 539.227C452.174 540.865 452.993 542.84 452.993 545.152C452.993 547.417 452.199 549.344 450.609 550.934C449.019 552.523 447.068 553.318 444.755 553.318C442.443 553.318 440.467 552.523 438.829 550.934C437.24 549.344 436.445 547.368 436.445 545.008ZM439.118 643V576.877H450.536V643H439.118ZM472.904 643V576.877H483.961V587.066C486.803 582.827 490.224 579.671 494.223 577.6C498.221 575.528 502.846 574.492 508.098 574.492C515.902 574.492 521.997 576.564 526.381 580.707C530.765 584.85 532.957 590.607 532.957 597.979V643H521.394V604.049C521.394 597.352 519.973 592.39 517.131 589.162C514.336 585.886 510 584.248 504.123 584.248C500.75 584.248 497.667 584.874 494.873 586.127C492.127 587.331 489.838 589.066 488.008 591.33C486.611 593.064 485.599 595.04 484.973 597.256C484.394 599.472 484.105 603.326 484.105 608.818V643H472.904ZM564.719 610.264C564.719 617.972 566.694 623.994 570.645 628.33C574.595 632.666 580.015 634.834 586.905 634.834C593.649 634.834 598.925 632.546 602.731 627.969C606.585 623.344 608.512 616.96 608.512 608.818C608.512 601.592 606.633 595.931 602.875 591.836C599.117 587.741 593.914 585.693 587.266 585.693C580.521 585.693 575.077 587.958 570.934 592.486C566.791 596.967 564.719 602.893 564.719 610.264ZM553.951 530.988H565.153V589.307C567.706 584.393 571.006 580.707 575.053 578.25C579.1 575.745 583.845 574.492 589.289 574.492C598.78 574.492 606.344 577.72 611.981 584.176C617.666 590.632 620.508 599.279 620.508 610.119C620.508 620.863 617.617 629.51 611.836 636.062C606.055 642.566 598.395 645.818 588.856 645.818C583.749 645.818 579.1 644.542 574.909 641.988C570.717 639.387 567.321 635.725 564.719 631.004V643H553.951V530.988ZM687.753 610.553C687.753 603.085 685.705 597.087 681.61 592.559C677.563 587.982 672.264 585.693 665.712 585.693C658.919 585.693 653.619 587.789 649.813 591.98C646.007 596.172 644.104 602.025 644.104 609.541C644.104 617.538 646.007 623.705 649.813 628.041C653.667 632.377 659.111 634.545 666.145 634.545C672.89 634.545 678.166 632.449 681.971 628.258C685.826 624.018 687.753 618.117 687.753 610.553ZM698.737 576.877V643H687.753V631.004C685.103 635.822 681.707 639.507 677.563 642.061C673.468 644.566 668.867 645.818 663.761 645.818C654.27 645.818 646.61 642.566 640.78 636.062C634.999 629.51 632.108 620.863 632.108 610.119C632.108 599.231 634.927 590.583 640.563 584.176C646.2 577.72 653.74 574.492 663.182 574.492C668.723 574.492 673.516 575.745 677.563 578.25C681.658 580.707 684.958 584.393 687.464 589.307V576.877H698.737ZM717.853 545.008C717.853 542.743 718.648 540.816 720.238 539.227C721.876 537.589 723.851 536.77 726.163 536.77C728.428 536.77 730.355 537.589 731.945 539.227C733.583 540.865 734.402 542.84 734.402 545.152C734.402 547.417 733.607 549.344 732.017 550.934C730.427 552.523 728.476 553.318 726.163 553.318C723.851 553.318 721.876 552.523 720.238 550.934C718.648 549.344 717.853 547.368 717.853 545.008ZM720.527 643V576.877H731.945V643H720.527ZM754.457 643V576.877H764.502V590.607C767.537 584.874 770.765 580.779 774.185 578.322C777.606 575.865 781.773 574.637 786.687 574.637C788.036 574.637 789.337 574.757 790.59 574.998C791.842 575.191 793.095 575.504 794.347 575.938L790.59 586.127C789.289 585.693 788.06 585.38 786.904 585.188C785.748 584.947 784.64 584.826 783.58 584.826C777.606 584.826 773.125 586.994 770.138 591.33C767.151 595.618 765.658 602.098 765.658 610.77V643H754.457ZM855.449 610.264C855.449 602.893 853.402 596.967 849.307 592.486C845.212 587.958 839.816 585.693 833.119 585.693C826.423 585.693 821.196 587.741 817.438 591.836C813.68 595.931 811.801 601.592 811.801 608.818C811.801 616.96 813.704 623.344 817.51 627.969C821.316 632.546 826.567 634.834 833.264 634.834C840.201 634.834 845.621 632.666 849.524 628.33C853.474 623.994 855.449 617.972 855.449 610.264ZM866.434 530.988V643H855.449V631.004C852.848 635.773 849.476 639.435 845.332 641.988C841.189 644.542 836.564 645.818 831.457 645.818C821.966 645.818 814.306 642.566 808.477 636.062C802.696 629.51 799.805 620.863 799.805 610.119C799.805 599.279 802.647 590.632 808.332 584.176C814.017 577.72 821.581 574.492 831.024 574.492C836.516 574.492 841.285 575.745 845.332 578.25C849.379 580.707 852.655 584.393 855.16 589.307V530.988H866.434ZM889.669 635.918C889.669 633.557 890.512 631.534 892.198 629.848C893.884 628.161 895.908 627.318 898.268 627.318C900.677 627.318 902.725 628.161 904.411 629.848C906.145 631.486 907.012 633.509 907.012 635.918C907.012 638.279 906.169 640.278 904.483 641.916C902.797 643.506 900.725 644.301 898.268 644.301C895.859 644.301 893.812 643.506 892.126 641.916C890.488 640.278 889.669 638.279 889.669 635.918ZM923.237 631.871L932.921 625.367C934.752 628.884 937.064 631.534 939.859 633.316C942.653 635.051 945.953 635.918 949.759 635.918C953.469 635.918 956.456 635.003 958.72 633.172C961.032 631.341 962.189 628.932 962.189 625.945C962.189 623.633 961.394 621.706 959.804 620.164C958.262 618.622 955.588 617.201 951.782 615.9C951.397 615.756 950.771 615.539 949.904 615.25C933.812 609.71 925.767 602.772 925.767 594.438C925.767 588.56 927.935 583.766 932.271 580.057C936.607 576.347 942.243 574.492 949.181 574.492C954.914 574.492 959.828 575.648 963.923 577.961C968.018 580.225 970.957 583.453 972.739 587.645L963.562 593.281C962.213 590.246 960.213 587.91 957.564 586.271C954.962 584.633 951.927 583.814 948.458 583.814C945.134 583.814 942.412 584.754 940.292 586.633C938.221 588.464 937.185 590.824 937.185 593.715C937.185 597.762 941.569 601.158 950.337 603.904C951.975 604.434 953.276 604.844 954.239 605.133C961.418 607.445 966.404 610.095 969.198 613.082C972.041 616.021 973.462 619.923 973.462 624.789C973.462 631.052 971.222 636.135 966.741 640.037C962.309 643.891 956.504 645.818 949.325 645.818C943.159 645.818 937.907 644.662 933.571 642.35C929.284 640.037 925.839 636.544 923.237 631.871ZM995.685 610.119C995.685 617.105 998.022 623.031 1002.7 627.896C1007.37 632.714 1013.03 635.123 1019.68 635.123C1026.28 635.123 1031.89 632.714 1036.52 627.896C1041.14 623.031 1043.45 617.105 1043.45 610.119C1043.45 603.133 1041.14 597.232 1036.52 592.414C1031.89 587.548 1026.28 585.115 1019.68 585.115C1012.98 585.115 1007.3 587.548 1002.62 592.414C997.998 597.232 995.685 603.133 995.685 610.119ZM983.689 610.119C983.689 605.253 984.58 600.676 986.363 596.389C988.146 592.053 990.747 588.199 994.168 584.826C997.588 581.454 1001.47 578.9 1005.8 577.166C1010.14 575.383 1014.76 574.492 1019.68 574.492C1024.5 574.492 1029.05 575.383 1033.34 577.166C1037.67 578.949 1041.6 581.55 1045.11 584.971C1048.54 588.295 1051.14 592.125 1052.92 596.461C1054.7 600.749 1055.59 605.301 1055.59 610.119C1055.59 614.937 1054.7 619.49 1052.92 623.777C1051.14 628.017 1048.54 631.799 1045.11 635.123C1041.6 638.592 1037.65 641.242 1033.26 643.072C1028.93 644.903 1024.4 645.818 1019.68 645.818C1014.81 645.818 1010.19 644.903 1005.8 643.072C1001.47 641.29 997.588 638.712 994.168 635.34C990.747 631.871 988.146 628.017 986.363 623.777C984.58 619.538 983.689 614.985 983.689 610.119ZM1074.78 643V586.199H1062.06V576.877H1074.78V557.727C1074.78 546.742 1076.15 539.323 1078.9 535.469C1081.69 531.566 1086.68 529.615 1093.86 529.615C1095.64 529.615 1097.33 529.736 1098.92 529.977C1100.56 530.217 1102.12 530.603 1103.62 531.133V542.84C1102.17 542.021 1100.7 541.419 1099.21 541.033C1097.76 540.648 1096.27 540.455 1094.73 540.455C1091.4 540.455 1089.11 541.515 1087.86 543.635C1086.61 545.755 1085.98 550.958 1085.98 559.244V576.877H1103.62V586.199H1086.27V643H1074.78ZM1114.85 586.199H1102.71V576.877H1114.85V550.211H1126.42V576.877H1138.56V586.199H1126.42V643H1114.85V586.199ZM1190.48 574.492L1210.28 621.971L1228.06 576.877H1240.78L1211.37 647.119L1189.61 596.389L1167.86 647.119L1138.38 576.877H1150.95L1168.59 621.971L1188.67 574.492H1190.48ZM1301.52 610.553C1301.52 603.085 1299.47 597.087 1295.38 592.559C1291.33 587.982 1286.03 585.693 1279.48 585.693C1272.69 585.693 1267.39 587.789 1263.58 591.98C1259.77 596.172 1257.87 602.025 1257.87 609.541C1257.87 617.538 1259.77 623.705 1263.58 628.041C1267.43 632.377 1272.88 634.545 1279.91 634.545C1286.66 634.545 1291.93 632.449 1295.74 628.258C1299.59 624.018 1301.52 618.117 1301.52 610.553ZM1312.5 576.877V643H1301.52V631.004C1298.87 635.822 1295.47 639.507 1291.33 642.061C1287.23 644.566 1282.63 645.818 1277.53 645.818C1268.04 645.818 1260.38 642.566 1254.55 636.062C1248.77 629.51 1245.87 620.863 1245.87 610.119C1245.87 599.231 1248.69 590.583 1254.33 584.176C1259.97 577.72 1267.51 574.492 1276.95 574.492C1282.49 574.492 1287.28 575.745 1291.33 578.25C1295.42 580.707 1298.72 584.393 1301.23 589.307V576.877H1312.5ZM1333.86 643V576.877H1343.9V590.607C1346.94 584.874 1350.17 580.779 1353.59 578.322C1357.01 575.865 1361.18 574.637 1366.09 574.637C1367.44 574.637 1368.74 574.757 1369.99 574.998C1371.24 575.191 1372.5 575.504 1373.75 575.938L1369.99 586.127C1368.69 585.693 1367.46 585.38 1366.31 585.188C1365.15 584.947 1364.04 584.826 1362.98 584.826C1357.01 584.826 1352.53 586.994 1349.54 591.33C1346.55 595.618 1345.06 602.098 1345.06 610.77V643H1333.86ZM1431.17 602.459C1430.78 596.63 1428.83 592.149 1425.31 589.018C1421.84 585.838 1417.07 584.248 1411 584.248C1405.51 584.248 1400.94 585.91 1397.27 589.234C1393.61 592.51 1391.49 596.919 1390.91 602.459H1431.17ZM1443.31 611.637H1390.91V612.648C1390.91 619.73 1392.94 625.464 1396.98 629.848C1401.03 634.184 1406.31 636.352 1412.81 636.352C1417.24 636.352 1421.24 635.171 1424.81 632.811C1428.37 630.402 1431.53 626.788 1434.27 621.971L1442.87 627.752C1439.55 633.726 1435.31 638.23 1430.15 641.266C1425 644.301 1419.03 645.818 1412.23 645.818C1402.16 645.818 1394.02 642.494 1387.81 635.846C1381.59 629.197 1378.48 620.477 1378.48 609.686C1378.48 599.327 1381.57 590.848 1387.73 584.248C1393.9 577.648 1401.83 574.348 1411.51 574.348C1421.29 574.348 1429.02 577.479 1434.71 583.742C1440.44 590.005 1443.31 598.557 1443.31 609.396V611.637Z" fill="white"/>
</g>
<defs>
<filter id="filter0_d_84_16" x="0" y="0" width="1626" height="1008" filterUnits="userSpaceOnUse" color-interpolation-filters="sRGB">
<feFlood flood-opacity="0" result="BackgroundImageFix"/>
<feColorMatrix in="SourceAlpha" type="matrix" values="0 0 0 0 0 0 0 0 0 0 0 0 0 0 0 0 0 0 127 0" result="hardAlpha"/>
<feOffset dx="4" dy="4"/>
<feGaussianBlur stdDeviation="2"/>
<feComposite in2="hardAlpha" operator="out"/>
<feColorMatrix type="matrix" values="0 0 0 0 0 0 0 0 0 0 0 0 0 0 0 0 0 0 0.25 0"/>
<feBlend mode="normal" in2="BackgroundImageFix" result="effect1_dropShadow_84_16"/>
<feBlend mode="normal" in="SourceGraphic" in2="effect1_dropShadow_84_16" result="shape"/>
</filter>
<filter id="filter1_f_84_16" x="81.9736" y="388.302" width="1014.01" height="842.739" filterUnits="userSpaceOnUse" color-interpolation-filters="sRGB">
<feFlood flood-opacity="0" result="BackgroundImageFix"/>
<feBlend mode="normal" in="SourceGraphic" in2="BackgroundImageFix" result="shape"/>
<feGaussianBlur stdDeviation="17" result="effect1_foregroundBlur_84_16"/>
</filter>
<filter id="filter2_f_84_16" x="602.258" y="569.615" width="863.693" height="635.499" filterUnits="userSpaceOnUse" color-interpolation-filters="sRGB">
<feFlood flood-opacity="0" result="BackgroundImageFix"/>
<feBlend mode="normal" in="SourceGraphic" in2="BackgroundImageFix" result="shape"/>
<feGaussianBlur stdDeviation="17" result="effect1_foregroundBlur_84_16"/>
</filter>
<filter id="filter3_f_84_16" x="895.92" y="30.7288" width="343.02" height="667.775" filterUnits="userSpaceOnUse" color-interpolation-filters="sRGB">
<feFlood flood-opacity="0" result="BackgroundImageFix"/>
<feBlend mode="normal" in="SourceGraphic" in2="BackgroundImageFix" result="shape"/>
<feGaussianBlur stdDeviation="17" result="effect1_foregroundBlur_84_16"/>
</filter>
<filter id="filter4_f_84_16" x="593.617" y="261.6" width="185.336" height="476.832" filterUnits="userSpaceOnUse" color-interpolation-filters="sRGB">
<feFlood flood-opacity="0" result="BackgroundImageFix"/>
<feBlend mode="normal" in="SourceGraphic" in2="BackgroundImageFix" result="shape"/>
<feGaussianBlur stdDeviation="17" result="effect1_foregroundBlur_84_16"/>
</filter>
<filter id="filter5_f_84_16" x="788.834" y="386.278" width="470.182" height="591.131" filterUnits="userSpaceOnUse" color-interpolation-filters="sRGB">
<feFlood flood-opacity="0" result="BackgroundImageFix"/>
<feBlend mode="normal" in="SourceGraphic" in2="BackgroundImageFix" result="shape"/>
<feGaussianBlur stdDeviation="17" result="effect1_foregroundBlur_84_16"/>
</filter>
<filter id="filter6_f_84_16" x="538.922" y="372.729" width="343.02" height="667.775" filterUnits="userSpaceOnUse" color-interpolation-filters="sRGB">
<feFlood flood-opacity="0" result="BackgroundImageFix"/>
<feBlend mode="normal" in="SourceGraphic" in2="BackgroundImageFix" result="shape"/>
<feGaussianBlur stdDeviation="17" result="effect1_foregroundBlur_84_16"/>
</filter>
<filter id="filter7_f_84_16" x="756.9" y="433.879" width="590.984" height="655.021" filterUnits="userSpaceOnUse" color-interpolation-filters="sRGB">
<feFlood flood-opacity="0" result="BackgroundImageFix"/>
<feBlend mode="normal" in="SourceGraphic" in2="BackgroundImageFix" result="shape"/>
<feGaussianBlur stdDeviation="17" result="effect1_foregroundBlur_84_16"/>
</filter>
<filter id="filter8_f_84_16" x="99.0566" y="802.171" width="831.693" height="254.316" filterUnits="userSpaceOnUse" color-interpolation-filters="sRGB">
<feFlood flood-opacity="0" result="BackgroundImageFix"/>
<feBlend mode="normal" in="SourceGraphic" in2="BackgroundImageFix" result="shape"/>
<feGaussianBlur stdDeviation="17" result="effect1_foregroundBlur_84_16"/>
</filter>
<filter id="filter9_f_84_16" x="163.017" y="241.662" width="784.103" height="874.057" filterUnits="userSpaceOnUse" color-interpolation-filters="sRGB">
<feFlood flood-opacity="0" result="BackgroundImageFix"/>
<feBlend mode="normal" in="SourceGraphic" in2="BackgroundImageFix" result="shape"/>
<feGaussianBlur stdDeviation="17" result="effect1_foregroundBlur_84_16"/>
</filter>
<filter id="filter10_f_84_16" x="755.789" y="752.801" width="737.973" height="395.94" filterUnits="userSpaceOnUse" color-interpolation-filters="sRGB">
<feFlood flood-opacity="0" result="BackgroundImageFix"/>
<feBlend mode="normal" in="SourceGraphic" in2="BackgroundImageFix" result="shape"/>
<feGaussianBlur stdDeviation="17" result="effect1_foregroundBlur_84_16"/>
</filter>
<filter id="filter11_f_84_16" x="752.914" y="189.877" width="185.439" height="1048.66" filterUnits="userSpaceOnUse" color-interpolation-filters="sRGB">
<feFlood flood-opacity="0" result="BackgroundImageFix"/>
<feBlend mode="normal" in="SourceGraphic" in2="BackgroundImageFix" result="shape"/>
<feGaussianBlur stdDeviation="17" result="effect1_foregroundBlur_84_16"/>
</filter>
<radialGradient id="paint0_radial_84_16" cx="0" cy="0" r="1" gradientUnits="userSpaceOnUse" gradientTransform="translate(809 1000) rotate(-90) scale(818.5 1097.37)">
<stop stop-color="#323232"/>
<stop offset="1" stop-color="#323232" stop-opacity="0"/>
</radialGradient>
<radialGradient id="paint1_radial_84_16" cx="0" cy="0" r="1" gradientUnits="userSpaceOnUse" gradientTransform="translate(588.981 809.671) rotate(90) scale(606 80.4466)">
<stop stop-color="#CD47D9"/>
<stop offset="1" stop-color="#CD47D9" stop-opacity="0"/>
</radialGradient>
<radialGradient id="paint2_radial_84_16" cx="0" cy="0" r="1" gradientUnits="userSpaceOnUse" gradientTransform="translate(64.2997 484.366) rotate(90) scale(484.366 64.2997)">
<stop stop-color="#CD47D9"/>
<stop offset="1" stop-color="#CD47D9" stop-opacity="0"/>
</radialGradient>
<radialGradient id="paint3_radial_84_16" cx="0" cy="0" r="1" gradientUnits="userSpaceOnUse" gradientTransform="translate(51.6019 325.824) rotate(90) scale(325.824 51.6019)">
<stop stop-color="#D9B947"/>
<stop offset="1" stop-color="#D9B947" stop-opacity="0"/>
</radialGradient>
<radialGradient id="paint4_radial_84_16" cx="0" cy="0" r="1" gradientUnits="userSpaceOnUse" gradientTransform="translate(686.285 500.016) rotate(90) scale(210.046 33.2657)">
<stop stop-color="#D9B947"/>
<stop offset="1" stop-color="#D9B947" stop-opacity="0"/>
</radialGradient>
<radialGradient id="paint5_radial_84_16" cx="0" cy="0" r="1" gradientUnits="userSpaceOnUse" gradientTransform="translate(51.6019 325.824) rotate(90) scale(325.824 51.6019)">
<stop stop-color="#D9B047"/>
<stop offset="1" stop-color="#D9B947" stop-opacity="0"/>
</radialGradient>
<radialGradient id="paint6_radial_84_16" cx="0" cy="0" r="1" gradientUnits="userSpaceOnUse" gradientTransform="translate(710.431 706.616) rotate(90) scale(325.824 51.6019)">
<stop stop-color="white"/>
<stop offset="1" stop-color="white" stop-opacity="0"/>
</radialGradient>
<radialGradient id="paint7_radial_84_16" cx="0" cy="0" r="1" gradientUnits="userSpaceOnUse" gradientTransform="translate(1052.39 761.39) rotate(90) scale(388.204 61.4812)">
<stop stop-color="white"/>
<stop offset="1" stop-color="white" stop-opacity="0"/>
</radialGradient>
<radialGradient id="paint8_radial_84_16" cx="0" cy="0" r="1" gradientUnits="userSpaceOnUse" gradientTransform="translate(61.4812 388.204) rotate(90) scale(388.204 61.4812)">
<stop stop-color="white"/>
<stop offset="1" stop-color="white" stop-opacity="0"/>
</radialGradient>
<radialGradient id="paint9_radial_84_16" cx="0" cy="0" r="1" gradientUnits="userSpaceOnUse" gradientTransform="translate(61.4812 535.536) rotate(90) scale(535.536 61.4812)">
<stop stop-color="#1ECCD7"/>
<stop offset="1" stop-color="#1ECCD7" stop-opacity="0"/>
</radialGradient>
<radialGradient id="paint10_radial_84_16" cx="0" cy="0" r="1" gradientUnits="userSpaceOnUse" gradientTransform="translate(1124.78 950.771) rotate(90) scale(370.506 42.5352)">
<stop stop-color="#1ECCD7"/>
<stop offset="1" stop-color="#1ECCD7" stop-opacity="0"/>
</radialGradient>
<radialGradient id="paint11_radial_84_16" cx="0" cy="0" r="1" gradientUnits="userSpaceOnUse" gradientTransform="translate(845.634 714.206) rotate(90) scale(490.608 56.3232)">
<stop stop-color="#1ECCD7"/>
<stop offset="1" stop-color="#1ECCD7" stop-opacity="0"/>
</radialGradient>
<filter id="turb"><feTurbulence 
      type='fractalNoise' 
      baseFrequency='2.45' 
      numOctaves='4' 
      stitchTiles='stitch'/></filter>
</defs>
</svg>
